<svg data-v-0dd9719b="" version="1.0" xmlns="http://www.w3.org/2000/svg" xmlns:xlink="http://www.w3.org/1999/xlink" width="100%" height="100%" viewBox="0 0 340.000000 250.000000" preserveAspectRatio="xMidYMid meet" color-interpolation-filters="sRGB" style="margin: auto;"> <rect data-v-0dd9719b="" x="0" y="0" width="100%" height="100%" fill="#fff" fill-opacity="1" class="background"></rect> <rect data-v-0dd9719b="" x="0" y="0" width="100%" height="100%" fill="url(#watermark)" fill-opacity="1" class="watermarklayer"></rect> <g data-v-0dd9719b="" fill="#333" class="icon-text-wrapper icon-svg-group iconsvg" transform="translate(50.344993591308594,97.2287483215332)"><g class="iconsvg-imagesvg" transform="translate(0,5.657794952392578)"><g><rect fill="#333" fill-opacity="0" stroke-width="2" x="0" y="0" width="60" height="44.22691355112631" class="image-rect"></rect> <svg x="0" y="0" width="60" height="44.22691355112631" filtersec="colorsb1356468575" class="image-svg-svg primary" style="overflow: visible;"><svg xmlns="http://www.w3.org/2000/svg" viewBox="-0.000016380474335164763 -0.017758673056960106 135.70216369628906 100.02776336669922"><g fill-rule="evenodd"><path d="M129.5 36.21a24.23 24.23 0 1 1-36.06 32.38c-14.28-15.9 2.14-30.53-5.75-39.32-8.06-9-14.66-1.54-21.41-9.06A12.12 12.12 0 0 1 84.31 4C91.07 11.54 83 17.3 91 26.27c7.88 8.79 24.2-6 38.47 9.94z" fill="#002d56"></path><path d="M62 31.23a13.4 13.4 0 1 1 18 19.95c-8.79 7.9-16.9-1.17-21.75 3.19s-.85 8.1-5 11.84a6.7 6.7 0 0 1-9-10c4.15-3.74 7.35.73 12.31-3.72S53.24 39.13 62 31.23z" fill="#00a4e4"></path><path d="M50.29 32.17a10.62 10.62 0 1 1-15.81 14.19c-6.26-7 .93-13.39-2.52-17.24s-6.43-.68-9.39-4a5.31 5.31 0 0 1 7.9-7.1c3 3.3-.58 5.82 3 9.76S44 25.19 50.29 32.17zM60.81 71.89a8.79 8.79 0 0 1 13.08-11.74c5.17 5.77-.78 11.08 2.08 14.26s5.32.56 7.77 3.29a4.39 4.39 0 0 1-6.54 5.87c-2.45-2.73.48-4.82-2.44-8.07s-8.78 2.16-14-3.61z" fill="#002d56"></path><path d="M97.23 78.71a10.65 10.65 0 1 1-10.65 10.64 10.64 10.64 0 0 1 10.65-10.64z" fill="#00a4e4"></path><path d="M84.07 63.68a4.82 4.82 0 1 1-4.82 4.81 4.81 4.81 0 0 1 4.82-4.81z" fill="#002d56"></path><path d="M99.53 9.17a7.34 7.34 0 1 1-7.33 7.33 7.34 7.34 0 0 1 7.33-7.33zM47.47 8A8.49 8.49 0 1 1 39 16.5 8.48 8.48 0 0 1 47.47 8zM12.23 31.75A12.23 12.23 0 1 1 0 44a12.23 12.23 0 0 1 12.23-12.25z" fill="#00a4e4"></path><path d="M30.28 52a6 6 0 1 1-6 6 6 6 0 0 1 6-6z" fill="#002d56"></path></g></svg></svg> <!----></g></g> <g transform="translate(67,0)"><g data-gra="path-name" fill-rule="" class="tp-name iconsvg-namesvg" transform="translate(0,0)"><g transform="scale(1)"><g><path d="M35.82-32.65Q38.45-32.65 39.57-31.53 40.69-30.41 40.69-27.82L40.69-27.82 40.69-2.9Q40.69-0.31 39.55 0.81 38.41 1.93 35.82 1.93L35.82 1.93 9.14 1.93Q6.5 1.93 5.38 0.81 4.26-0.31 4.26-2.9L4.26-2.9 4.26-27.82Q4.26-30.45 5.38-31.55 6.5-32.65 9.14-32.65L9.14-32.65 35.82-32.65ZM36.91-4.53L36.91-26.28Q36.91-27.91 36.34-28.45 35.77-29 34.06-29L34.06-29 27.47-29 27.47-13.49Q27.47-12 29.49-12L29.49-12Q31.29-12 31.82-12.44L31.82-12.44Q32.26-12.79 32.3-14.85L32.3-14.85Q32.39-16.83 33.75-16.83L33.75-16.83Q35.42-16.83 35.42-15.03L35.42-15.03Q35.42-11.78 34.58-10.24L34.58-10.24Q33.71-8.57 30.37-8.57L30.37-8.57Q28.13-8.57 26.67-8.77 25.22-8.96 24.79-9.32L24.79-9.32Q23.95-9.98 23.95-11.65L23.95-11.65 23.95-29 18.9-29Q18.9-19.51 18.24-15.64L18.24-15.64Q17.62-12.17 15.38-9.84L15.38-9.84Q13.1-7.47 11.69-7.47L11.69-7.47Q9.93-7.47 9.93-9.4L9.93-9.4Q9.93-10.24 11.47-11.47L11.47-11.47Q13.01-12.74 13.89-14.46L13.89-14.46Q14.85-16.3 15.12-18.72L15.12-18.72Q15.34-20.74 15.34-29L15.34-29 10.9-29Q9.18-29 8.61-28.43 8.04-27.86 8.04-26.19L8.04-26.19 8.04-4.44Q8.04-2.81 8.61-2.26 9.18-1.71 10.9-1.71L10.9-1.71 34.15-1.71Q35.82-1.71 36.36-2.29 36.91-2.86 36.91-4.53L36.91-4.53ZM82.92 4Q80.99 4 80.99 1.58L80.99 1.58 80.99-32.65Q80.99-35.07 82.92-35.07L82.92-35.07Q83.94-35.07 84.4-34.48 84.86-33.88 84.86-32.65L84.86-32.65 84.86 1.58Q84.86 4 82.92 4L82.92 4ZM49.57 3.38Q47.55 3.38 47.55 1.19L47.55 1.19Q47.55 0.44 48.38-0.7L48.38-0.7Q50.93-4.31 51.86-8.75L51.86-8.75Q52.12-10.02 52.25-13.07 52.38-16.13 52.51-21.97L52.51-21.97 52.51-32.3Q52.51-33.57 53-34.17 53.48-34.76 54.49-34.76L54.49-34.76Q55.46-34.76 55.92-34.17 56.38-33.57 56.38-32.34L56.38-32.34 56.34-21.93Q56.29-15.42 55.83-10.83 55.37-6.24 54.58-3.96L54.58-3.96Q52.08 3.38 49.57 3.38L49.57 3.38ZM68.33-0.66Q66.45-0.66 66.45-3.03L66.45-3.03 66.45-31.11Q66.45-33.49 68.38-33.49L68.38-33.49Q70.27-33.49 70.27-31.11L70.27-31.11 70.27-3.03Q70.27-0.66 68.33-0.66L68.33-0.66ZM130.74-21.88Q132.58-21.88 132.58-20.35L132.58-20.35Q132.58-18.81 130.74-18.81L130.74-18.81 94.22-18.81Q92.37-18.81 92.37-20.35L92.37-20.35Q92.37-21.88 94.22-21.88L94.22-21.88 110.39-21.88 110.39-24.48 98.48-24.48Q96.81-24.48 96.81-25.93L96.81-25.93Q96.81-27.33 98.48-27.33L98.48-27.33 110.39-27.33 110.39-29.71 95.89-29.71Q94.04-29.71 94.04-31.25L94.04-31.25Q94.04-32.78 95.89-32.78L95.89-32.78 110.39-32.78 110.39-34.1Q110.39-35.86 112.28-35.86L112.28-35.86Q114.13-35.86 114.13-34.1L114.13-34.1 114.13-32.78 129.07-32.78Q130.96-32.78 130.96-31.25L130.96-31.25Q130.96-29.71 129.07-29.71L129.07-29.71 114.13-29.71 114.13-27.33 126.47-27.33Q128.19-27.33 128.19-25.88L128.19-25.88Q128.19-25.22 127.75-24.85 127.31-24.48 126.47-24.48L126.47-24.48 114.13-24.48 114.13-21.88 130.74-21.88ZM123.05-16.74Q125.11-16.74 126.06-15.8 127-14.85 126.91-12.79L126.91-12.79 126.91-0.48Q126.91 1.71 125.77 2.99L125.77 2.99Q124.8 4.09 122.48 4.09L122.48 4.09 118.78 4.09Q116.72 4.09 116.72 2.29L116.72 2.29Q116.72 0.48 118.78 0.48L118.78 0.48 121.64 0.48Q122.43 0.48 122.87 0.04 123.31-0.4 123.31-1.23L123.31-1.23 123.31-2.81 101.6-2.81 101.6 2.24Q101.6 4.22 99.84 4.22L99.84 4.22Q98.04 4.22 98.04 2.24L98.04 2.24 98.04-12.79Q98.04-14.99 98.94-15.95 99.84-16.92 101.87-16.74L101.87-16.74 123.05-16.74ZM103.23-13.67Q102.44-13.67 102.02-13.25 101.6-12.83 101.6-12.08L101.6-12.08 101.6-11.25 123.31-11.25 123.31-12.08Q123.31-12.88 122.89-13.27 122.48-13.67 121.68-13.67L121.68-13.67 103.23-13.67ZM101.6-8.22L101.6-5.84 123.31-5.84 123.31-8.22 101.6-8.22ZM172.49-9.76Q176.57-9.76 176.57-6.28L176.57-6.28Q176.57 0.75 174.59 2.59L174.59 2.59Q172.75 4.31 167.56 4.31L167.56 4.31Q165.63 4.31 165.63 2.5L165.63 2.5Q165.63 0.62 167.65 0.62L167.65 0.62 168.88 0.66Q171.56 0.7 172.13-0.26L172.13-0.26Q172.97-1.63 172.97-4.92L172.97-4.92Q172.97-6.72 171.61-6.72L171.61-6.72 145.46-6.72Q141.42-6.72 141.59-10.72L141.59-10.72 141.59-28.21Q141.59-30.32 142.54-31.29 143.48-32.26 145.55-32.17L145.55-32.17 152.67-32.17 152.97-33.18Q153.76-35.82 155.43-35.82L155.43-35.82Q157.37-35.82 157.37-34.28L157.37-34.28Q157.37-33.71 156.49-32.17L156.49-32.17 169.06-32.17Q171.21-32.17 172.18-31.22 173.14-30.28 173.01-28.21L173.01-28.21 173.01-21.88Q173.01-19.78 172.07-18.81 171.12-17.84 169.06-17.93L169.06-17.93 145.11-17.93 145.11-15.38 173.98-15.38Q175.83-15.38 175.83-13.89L175.83-13.89Q175.83-12.39 173.98-12.39L173.98-12.39 145.11-12.39 145.11-11.03Q145.11-10.42 145.48-10.09 145.85-9.76 146.51-9.76L146.51-9.76 172.49-9.76ZM145.11-27.47L145.11-26.46 169.45-26.46 169.45-27.47Q169.45-29.05 167.83-29.05L167.83-29.05 146.73-29.05Q145.11-29.05 145.11-27.47L145.11-27.47ZM145.11-23.55L145.11-20.92 167.83-20.92Q169.45-20.92 169.45-22.5L169.45-22.5 169.45-23.55 145.11-23.55ZM168.18-1.1Q168.18 0.31 166.51 0.31L166.51 0.31Q165.23 0.31 164.44-1.89L164.44-1.89 163.87-3.21Q163.52-3.96 163.52-4.53L163.52-4.53Q163.52-5.76 165.1-5.76L165.1-5.76Q166.29-5.76 167.26-3.78L167.26-3.78Q168.18-1.93 168.18-1.1L168.18-1.1ZM141.15-5.54Q142.91-5.54 142.91-3.82L142.91-3.82Q142.91-2.55 141.28 1.32L141.28 1.32Q140.58 3.03 139.22 3.03L139.22 3.03Q138.3 3.03 137.86 2.61 137.42 2.2 137.42 1.32L137.42 1.32Q137.42 0.92 138.21-0.88L138.21-0.88Q138.82-2.29 139.22-3.65L139.22-3.65Q139.83-5.54 141.15-5.54L141.15-5.54ZM157.15-5.36Q158.42-5.36 159.08-3.65L159.08-3.65Q160.31-0.31 160.31 0.26L160.31 0.26Q160.31 1.85 158.6 1.85L158.6 1.85Q157.85 1.85 157.32 1.32L157.32 1.32Q156.84 0.83 156.18-1.67L156.18-1.67 155.57-3.6 155.52-4.04Q155.48-4.7 155.92-5.03 156.36-5.36 157.15-5.36L157.15-5.36ZM148.89-4.88Q150.12-4.88 150.69-3.21L150.69-3.21Q151.83 0.09 151.83 1.01L151.83 1.01Q151.83 2.59 150.03 2.59L150.03 2.59Q149.11 2.59 148.67 2.02L148.67 2.02Q148.49 1.8 148.14 0.44 147.79-0.92 147.3-2.9L147.3-2.9 147.22-3.47Q147.04-4.88 148.89-4.88L148.89-4.88Z" transform="translate(-4.260000228881836, 35.86000061035156)"></path></g> <!----> <!----> <!----> <!----> <!----> <!----> <!----></g></g> <g data-gra="path-slogan" fill-rule="" class="tp-slogan iconsvg-slogansvg" fill="#333" transform="translate(5,46.17000198364258)"><rect x="0" height="1" y="4.185000419616699" width="20.19417953491211"></rect> <rect height="1" y="4.185000419616699" width="20.19417953491211" x="142.1158332824707"></rect> <g transform="translate(23.19417953491211,0)"><g transform="scale(1)"><path d="M7.17-6.09L7.17-6.09L6.09-6.09Q6-7.73 3.94-7.83L3.94-7.83Q2.02-7.78 2.02-6.33L2.02-6.33Q2.02-5.39 3.05-5.25L3.05-5.25L5.48-4.69Q7.41-4.22 7.41-2.34L7.41-2.34Q7.36 0.05 4.03 0.14L4.03 0.14Q2.20 0.14 1.45-0.61L1.45-0.61Q0.52-1.31 0.56-2.77L0.56-2.77L1.69-2.77Q1.73-0.80 4.03-0.75L4.03-0.75Q6.28-0.80 6.33-2.20L6.33-2.20Q6.52-3.38 4.45-3.75L4.45-3.75L2.67-4.13Q0.84-4.64 0.84-6.19L0.84-6.19Q0.98-8.72 3.84-8.81L3.84-8.81Q7.08-8.81 7.17-6.09ZM9.05-8.58L10.22-8.58L10.22 0L9.05 0L9.05-8.58ZM19.36-6.05L19.36-6.05L18.23-6.05Q17.81-7.78 15.84-7.83L15.84-7.83Q13.13-7.69 13.03-4.36L13.03-4.36Q13.03-0.80 15.89-0.80L15.89-0.80Q17.86-0.84 18.33-3.19L18.33-3.19L19.45-3.19Q18.94 0.05 15.66 0.14L15.66 0.14Q11.91 0 11.81-4.31L11.81-4.31Q12-8.63 15.84-8.81L15.84-8.81Q18.89-8.72 19.36-6.05ZM21.98-5.06L26.48-5.06L26.48-8.58L27.66-8.58L27.66 0L26.48 0L26.48-3.98L21.98-3.98L21.98 0L20.81 0L20.81-8.58L21.98-8.58L21.98-5.06ZM35.11-3.19L35.11-8.58L36.28-8.58L36.28-3.05Q36.14 0.05 32.77 0.14L32.77 0.14Q29.63 0.05 29.48-2.86L29.48-2.86L29.48-8.58L30.66-8.58L30.66-3.19Q30.70-0.84 32.81-0.80L32.81-0.80Q35.11-0.84 35.11-3.19L35.11-3.19ZM43.73 0L42.89-2.48L39.42-2.48L38.53 0L37.36 0L40.59-8.58L41.91-8.58L45 0L43.73 0ZM41.16-7.31L39.80-3.52L42.47-3.52L41.20-7.31L41.16-7.31ZM47.44-8.58L51.75-1.64L51.75-8.58L52.88-8.58L52.88 0L51.56 0L47.20-6.94L47.16-6.94L47.16 0L46.03 0L46.03-8.58L47.44-8.58ZM63-1.08L62.11-1.78L62.72-2.48L63.80-1.64Q64.78-2.63 64.78-4.27L64.78-4.27Q64.59-7.64 61.78-7.83L61.78-7.83Q58.92-7.69 58.78-4.27L58.78-4.27Q58.92-0.94 61.78-0.80L61.78-0.80Q62.48-0.80 63-1.08L63-1.08ZM64.73-0.94L65.86-0.05L65.30 0.56L63.98-0.33Q63.14 0.14 61.78 0.14L61.78 0.14Q57.84 0 57.56-4.27L57.56-4.27Q57.80-8.72 61.78-8.81L61.78-8.81Q65.67-8.67 65.95-4.27L65.95-4.27Q65.91-2.20 64.73-0.94L64.73-0.94ZM67.50-8.58L68.67-8.58L68.67 0L67.50 0L67.50-8.58ZM72.05-8.58L76.36-1.64L76.36-8.58L77.48-8.58L77.48 0L76.17 0L71.81-6.94L71.77-6.94L71.77 0L70.64 0L70.64-8.58L72.05-8.58ZM85.69-3.61L83.06-3.61L83.06-4.59L86.81-4.59L86.81 0L86.06 0L85.78-1.08Q84.80 0.09 82.97 0.14L82.97 0.14Q81.23 0.14 80.30-0.75L80.30-0.75Q78.89-2.06 78.94-4.36L78.94-4.36Q79.27-8.63 83.02-8.81L83.02-8.81Q86.20-8.63 86.67-6L86.67-6L85.55-6Q85.08-7.78 82.97-7.83L82.97-7.83Q80.30-7.64 80.16-4.31L80.16-4.31Q80.16-0.75 83.02-0.75L83.02-0.75Q84.05-0.75 84.80-1.31L84.80-1.31Q85.73-2.06 85.69-3.61L85.69-3.61ZM90-8.58L94.31-1.64L94.31-8.58L95.44-8.58L95.44 0L94.13 0L89.77-6.94L89.72-6.94L89.72 0L88.59 0L88.59-8.58L90-8.58ZM97.41-8.58L98.58-8.58L98.58 0L97.41 0L97.41-8.58ZM106.22 0L105.38-2.48L101.91-2.48L101.02 0L99.84 0L103.08-8.58L104.39-8.58L107.48 0L106.22 0ZM103.64-7.31L102.28-3.52L104.95-3.52L103.69-7.31L103.64-7.31ZM115.31-4.27L115.31-4.27Q115.13-7.64 112.31-7.83L112.31-7.83Q109.45-7.69 109.31-4.27L109.31-4.27Q109.45-0.94 112.31-0.80L112.31-0.80Q115.13-0.98 115.31-4.27ZM116.48-4.27L116.48-4.27Q116.20 0 112.31 0.14L112.31 0.14Q108.38 0 108.09-4.27L108.09-4.27Q108.33-8.72 112.31-8.81L112.31-8.81Q116.20-8.67 116.48-4.27Z" transform="translate(-0.5602678571428572, 8.8125)"></path></g></g></g></g></g><defs v-gra="od"></defs></svg>